<?xml version="1.0" encoding="utf-8"?>
<!-- Generator: Adobe Illustrator 18.1.0, SVG Export Plug-In . SVG Version: 6.00 Build 0)  -->
<!DOCTYPE svg PUBLIC "-//W3C//DTD SVG 1.1//EN" "http://www.w3.org/Graphics/SVG/1.1/DTD/svg11.dtd">
<svg version="1.1" id="Dynamic" xmlns="http://www.w3.org/2000/svg" xmlns:xlink="http://www.w3.org/1999/xlink" x="0px" y="0px"
	 width="1024px" height="768px" viewBox="-351 913 1024 768" enable-background="new -351 913 1024 768" xml:space="preserve">
<g>
	<g>
		<polygon fill="#FFFFFF" points="-350.5,1680.5 -350.5,913.5 635.781,913.5 672.5,950.219 672.5,1680.5 		"/>
		<path d="M635.574,914L672,950.426V1680H-350V914H635.574 M635.988,913H-351v768H673V950.012L635.988,913L635.988,913z"/>
	</g>
	<g>
		<polygon fill="#FFFFFF" points="636.5,949.5 636.5,914.207 671.793,949.5 		"/>
		<path d="M637,915.414L670.586,949H637V915.414 M636,913v37h37L636,913L636,913z"/>
	</g>
</g>
<g display="none">
	<path display="inline" fill="#FF0000" d="M-228.885,1063.323c-3.92,8.428-12.152,11.956-21.952,11.956
		c-8.232,0-18.816-4.508-18.816-24.892c0-22.344,11.368-26.656,20.188-26.656c8.624,0,14.896,3.136,19.208,8.036v-30.576
		c0-18.816-2.156-21.952-10.976-21.952c-8.82,0-10.388,4.312-10.388,29.4h-11.759c0-24.108,5.292-32.928,22.148-32.928
		s22.736,5.684,22.736,21.756v66.444c0,8.428,4.508,8.036,10.584,6.468v3.724C-219.084,1077.042-227.708,1075.867-228.885,1063.323z
		 M-229.865,1048.819c0-16.072-7.056-20.776-15.484-20.776c-7.644,0-12.544,4.704-12.544,20.776c0,17.052,4.9,20.972,12.544,20.972
		C-236.92,1069.791-229.865,1065.871-229.865,1048.819z"/>
	<path display="inline" fill="none" d="M-30.159,1062.931c-3.724,8.036-12.152,12.348-22.736,12.348c-9.016,0-19.6-4.9-19.6-25.872
		c0-21.952,10.78-27.636,20.776-27.636c9.212,0,15.68,3.528,19.992,8.232v-28.224c0-18.816-1.96-22.148-9.8-22.148
		c-8.036,0-9.604,4.116-9.604,28.616h-15.092c0-24.892,6.076-33.516,25.479-33.516c18.816,0,25.088,6.86,25.088,23.324v64.68
		c0,7.644,3.92,7.84,10.192,6.468v4.9C-18.399,1077.238-28.395,1075.867-30.159,1062.931z M-31.334,1047.839
		c0-15.68-6.076-20.384-13.72-20.384c-7.056,0-11.368,4.704-11.368,20.384c0,16.072,4.312,20.384,11.368,20.384
		C-37.411,1068.223-31.334,1063.911-31.334,1047.839z"/>
	<path display="inline" fill="none" d="M169.6,1062.343c-3.724,7.84-12.347,12.936-23.912,12.936
		c-9.604,0-20.384-5.096-20.384-26.852s10.388-28.42,21.756-28.42c9.604,0,16.072,3.528,20.58,8.036v-25.872
		c0-18.816-1.764-22.344-8.82-22.344c-7.056,0-8.428,4.116-8.428,27.832h-18.816c0-25.284,7.057-33.908,28.812-33.908
		c20.971,0,27.635,7.84,27.635,24.696v62.916c0,7.056,3.332,7.84,9.996,6.468v6.272
		C183.123,1077.238,171.756,1075.867,169.6,1062.343z M168.031,1046.859c0-15.484-4.899-20.188-11.956-20.188
		c-6.468,0-10.191,4.704-10.191,20.188c0,15.288,3.527,19.796,10.191,19.796C163.132,1066.655,168.031,1062.146,168.031,1046.859z"
		/>
	<path display="inline" fill="none" d="M367.346,1061.559c-3.332,7.056-12.348,13.72-25.479,13.72
		c-10.977,0-21.756-5.684-21.756-28.812c0-20.972,9.604-29.792,23.128-29.792c10.388,0,17.248,3.92,21.56,8.232v-21.756
		c0-19.012-1.176-22.736-6.664-22.736s-6.859,3.724-6.859,26.46h-24.893c0-26.46,8.624-34.692,34.692-34.692
		c24.5,0,31.947,9.604,31.947,27.244v59.78c0,5.88,2.353,7.644,9.408,6.468v8.428
		C384.202,1077.435,370.678,1075.67,367.346,1061.559z M365.189,1045.291c0-15.092-2.743-19.796-8.819-19.796
		c-5.488,0-8.036,4.704-8.036,19.796c0,13.524,2.548,18.424,8.036,18.424C362.446,1063.714,365.189,1058.814,365.189,1045.291z"/>
	<path display="inline" fill="#FF0000" d="M565.875,1060.971c-3.136,6.468-12.544,14.308-26.656,14.308
		c-11.955,0-22.735-6.076-22.735-29.988c0-20.58,9.016-30.968,23.912-30.968c11.172,0,18.031,4.312,22.54,8.232v-18.816
		c0-18.816-0.98-22.932-5.292-22.932s-5.685,3.528-5.685,25.479h-29.204c0-27.244,9.801-35.28,38.809-35.28
		c27.048,0,35.084,10.976,35.084,29.008v57.624c0,5.096,1.567,7.644,8.819,6.468v9.996
		C585.083,1077.63,569.795,1075.67,565.875,1060.971z M563.327,1044.115c0-14.896-1.372-19.404-6.664-19.404
		c-4.704,0-6.664,4.508-6.664,19.404c0,12.152,1.764,17.64,6.664,17.64C561.955,1061.754,563.327,1056.267,563.327,1044.115z"/>
	<path display="inline" fill="none" d="M-225.553,1247.323c-5.096,8.232-14.504,12.152-26.068,12.152
		c-10.192,0-23.912-4.508-23.912-25.284c0-21.756,14.504-26.656,25.676-26.656s18.424,3.528,22.736,8.232v-28.812
		c0-18.032-3.136-23.52-14.896-23.52c-11.368,0-13.328,6.272-13.328,29.008h-12.74c0-22.54,6.664-32.928,27.244-32.928
		c19.012,0,26.068,8.232,26.068,24.304v61.544c0,10.192,4.9,10.78,13.524,8.624v4.116
		C-212.421,1261.042-223.201,1260.062-225.553,1247.323z M-226.729,1232.623c0-15.876-8.232-20.776-19.012-20.776
		c-10.584,0-17.248,4.9-17.248,20.776c0,16.856,6.664,21.168,17.248,21.168C-234.765,1253.791-226.729,1249.479-226.729,1232.623z"
		/>
	<path display="inline" fill="none" d="M-27.023,1246.734c-5.096,8.232-14.896,12.74-27.048,12.74
		c-10.976,0-24.304-4.9-24.304-26.068c0-21.56,13.524-27.636,25.872-27.636c11.368,0,19.012,3.724,23.324,8.428v-26.852
		c0-18.228-2.548-23.52-13.132-23.52c-10.388,0-12.152,5.88-12.152,28.224h-16.66c0-23.128,7.644-33.516,30.771-33.516
		c20.972,0,28.42,8.82,28.42,25.479v60.564c0,9.212,4.312,10.192,12.937,8.036v5.488
		C-12.911,1261.238-24.867,1259.867-27.023,1246.734z M-28.591,1231.839c0-15.68-7.056-20.384-17.052-20.384
		c-9.604,0-15.484,4.704-15.484,20.384c0,15.875,5.88,20.384,15.484,20.384C-35.647,1252.223-28.591,1247.714-28.591,1231.839z"/>
	<path display="inline" fill="none" d="M172.343,1246.343c-4.704,7.84-14.896,13.132-27.832,13.132
		c-11.563,0-24.696-5.096-24.696-27.048c0-21.168,12.74-28.42,26.068-28.42c11.563,0,19.599,3.92,24.107,8.428v-24.892
		c0-18.228-2.352-23.324-11.563-23.324c-9.212,0-10.976,5.292-10.976,27.636h-20.385c0-24.108,8.429-34.104,33.908-34.104
		c23.127,0,31.164,9.408,31.164,26.46v59.388c0,8.232,3.724,9.8,12.152,7.644v6.86
		C188.022,1261.435,175.282,1259.867,172.343,1246.343z M170.579,1230.859c0-15.092-5.881-19.796-15.092-19.796
		c-8.624,0-13.72,4.704-13.72,19.796c0,15.092,4.9,19.6,13.72,19.6C164.698,1250.458,170.579,1245.951,170.579,1230.859z"/>
	<path display="inline" fill="none" d="M369.795,1245.559c-4.703,7.252-15.483,13.916-29.596,13.916
		c-12.739,0-25.283-5.684-25.283-28.812c0-20.384,10.976-29.596,26.264-29.596c12.348,0,20.775,3.92,25.479,8.428v-21.364
		c0-18.424-1.567-23.128-8.819-23.128s-8.82,4.508-8.82,26.264h-27.048c0-25.479,9.996-35.083,39.788-35.083
		c26.852,0,35.279,10.388,35.279,28.42v57.624c0,6.468,2.744,8.624,11.172,6.86v9.016
		C388.023,1261.63,373.715,1259.67,369.795,1245.559z M367.247,1229.291c0-14.504-3.724-19.208-11.367-19.208
		c-7.057,0-10.78,4.704-10.78,19.208c0,13.328,3.527,18.228,10.78,18.228C363.523,1247.519,367.247,1242.619,367.247,1229.291z"/>
	<path display="inline" fill="none" d="M567.64,1245.167c-4.312,6.86-15.68,14.308-30.576,14.308
		c-13.523,0-25.872-6.076-25.872-29.988c0-19.796,9.996-30.576,26.656-30.576c12.74,0,21.56,4.116,26.46,8.428v-18.816
		c0-18.424-1.176-23.128-6.86-23.128c-5.684,0-7.252,3.92-7.252,25.48h-31.752c0-26.46,10.977-35.868,43.904-35.868
		c29.399,0,38.416,11.172,38.416,29.792v56.252c0,5.292,1.96,8.036,10.388,6.272v10.78
		C588.023,1261.827,572.735,1259.67,567.64,1245.167z M564.896,1228.115c0-13.916-2.352-18.62-8.82-18.62
		c-6.075,0-8.624,4.704-8.624,18.62c0,12.348,2.549,17.444,8.624,17.444C562.544,1245.559,564.896,1240.462,564.896,1228.115z"/>
	<path display="inline" fill="none" d="M-222.319,1430.931c-6.076,8.428-17.052,12.936-30.38,12.936
		c-11.956,0-28.616-4.899-28.616-25.676c0-21.168,17.64-27.048,30.968-27.048c13.524,0,21.756,3.92,26.068,8.82v-27.244
		c0-17.443-4.116-25.088-18.424-25.088c-14.112,0-16.268,8.036-16.268,28.42h-13.916c0-20.58,8.232-32.928,32.536-32.928
		c20.776,0,29.204,10.78,29.204,27.048v56.84c0,11.76,5.292,13.328,16.072,10.584v4.508
		C-206.248,1445.043-219.184,1444.062-222.319,1430.931z M-223.691,1416.623c0-15.876-9.212-20.776-22.736-20.776
		c-13.132,0-21.56,4.704-21.56,20.776c0,16.659,8.232,21.168,21.56,21.168C-232.903,1437.791-223.691,1433.087-223.691,1416.623z"/>
	<path display="inline" fill="none" d="M-24.083,1430.343c-6.076,8.428-17.444,13.523-31.164,13.523
		c-12.74,0-28.812-5.096-28.812-26.655c0-20.776,16.268-27.636,30.576-27.636c13.72,0,22.344,4.115,27.048,8.819v-25.479
		c0-17.64-3.528-24.696-16.464-24.696c-12.74,0-14.7,7.252-14.7,27.832H-75.63c0-21.756,9.016-33.712,35.672-33.712
		c23.128,0,31.752,10.78,31.752,27.832v56.447c0,10.389,4.704,12.152,15.288,9.604v5.88
		C-7.227,1445.238-20.75,1444.062-24.083,1430.343z M-26.042,1415.643c0-15.288-7.84-20.188-20.188-20.188
		c-11.956,0-19.404,4.899-19.404,20.188c0,15.876,7.252,20.384,19.404,20.384C-33.882,1436.026-26.042,1431.322-26.042,1415.643z"/>
	<path display="inline" fill="#999999" d="M174.989,1430.146c-5.88,8.036-17.639,13.72-31.947,13.72
		c-13.328,0-28.812-5.487-28.812-27.439c0-20.384,14.896-28.224,30.38-28.224c13.72,0,22.932,3.92,27.635,8.624v-23.716
		c0-17.836-2.939-24.5-14.503-24.5c-11.172,0-13.132,6.664-13.132,27.243h-22.147c0-22.735,9.996-34.3,39.004-34.3
		c25.283,0,34.299,10.977,34.299,28.42v56.056c0,9.408,4.116,11.368,14.504,8.82v7.252
		C192.825,1445.631,178.518,1443.866,174.989,1430.146z M172.834,1414.858c0-14.699-6.664-19.6-17.835-19.6
		c-10.977,0-17.248,4.704-17.248,19.6s6.271,19.601,17.248,19.601C166.17,1434.459,172.834,1429.559,172.834,1414.858z"/>
	<path display="inline" fill="none" d="M371.755,1429.755c-5.685,7.644-18.229,14.111-33.32,14.111
		c-14.308,0-28.812-5.88-28.812-29.008c0-19.796,12.544-29.399,29.596-29.399c13.916,0,24.107,3.92,29.204,8.428v-20.58
		c0-18.031-1.96-23.716-10.977-23.716c-8.819,0-10.584,5.292-10.584,26.068h-29.204c0-24.5,11.368-35.672,44.688-35.672
		c29.204,0,38.611,11.367,38.611,29.792v55.271c0,7.252,3.137,9.604,12.937,7.252v9.8
		C391.746,1446.022,376.654,1443.866,371.755,1429.755z M369.011,1413.291c0-13.721-4.508-18.62-13.721-18.62
		c-8.819,0-13.327,4.899-13.327,18.62c0,13.327,4.508,18.228,13.327,18.228C364.503,1431.519,369.011,1426.618,369.011,1413.291z"/>
	<path display="inline" fill="none" d="M569.402,1429.559c-5.488,7.056-18.62,14.308-34.3,14.308
		c-15.092,0-28.812-6.271-28.812-29.987c0-19.404,10.977-30.38,29.204-30.38c14.112,0,24.892,4.116,30.38,8.428v-18.424
		c0-18.228-1.567-23.324-8.624-23.324c-7.056,0-8.819,4.312-8.819,25.48h-34.104c0-26.068,12.152-36.652,48.608-36.652
		c31.947,0,41.747,11.564,41.747,30.772v54.684c0,5.684,2.549,8.231,11.956,6.271v11.368
		C590.766,1446.219,575.479,1443.671,569.402,1429.559z M566.267,1412.311c0-13.132-2.94-17.836-10.584-17.836
		c-7.448,0-10.78,4.704-10.78,17.836c0,12.152,3.332,17.052,10.78,17.052C563.326,1429.362,566.267,1424.463,566.267,1412.311z"/>
	<path display="inline" fill="#FF0000" d="M-218.987,1614.343c-7.056,8.624-19.208,13.72-34.496,13.72
		c-13.916,0-33.516-4.9-33.516-26.067c0-20.58,20.58-27.049,36.26-27.049c15.876,0,25.088,4.312,29.4,9.017v-25.48
		c0-16.855-4.9-26.655-22.148-26.655c-16.66,0-19.012,9.8-19.012,28.027h-15.091c0-19.012,9.8-32.928,37.632-32.928
		c22.932,0,32.536,13.132,32.536,29.596v52.136c0,13.524,5.488,15.876,18.816,12.544v4.9
		C-200.171,1629.238-215.263,1628.454-218.987,1614.343z M-220.751,1600.427c0-15.876-10.192-20.776-26.068-20.776
		c-16.072,0-26.068,4.704-26.068,20.776c0,16.464,9.8,21.364,26.068,21.364C-230.747,1621.791-220.751,1616.694-220.751,1600.427z"
		/>
	<path display="inline" fill="none" d="M-21.241,1614.146c-6.86,8.624-19.6,13.916-35.083,13.916
		c-14.504,0-33.32-5.096-33.32-26.852c0-20.188,19.012-27.636,35.476-27.636c15.876,0,25.676,4.312,30.38,9.016v-24.108
		c0-17.052-4.312-26.067-19.796-26.067c-15.092,0-17.248,8.82-17.248,27.439h-19.404c0-20.188,10.584-33.712,40.768-33.712
		c25.284,0,35.084,12.937,35.084,29.988v52.332c0,11.956,4.899,14.504,17.64,11.367v6.272
		C-1.445,1629.435-16.928,1628.259-21.241,1614.146z M-23.201,1599.643c0-15.092-9.016-19.992-23.52-19.992
		s-23.324,4.704-23.324,19.992c0,15.68,8.624,20.384,23.324,20.384C-32.021,1620.026-23.201,1615.127-23.201,1599.643z"/>
	<path display="inline" fill="none" d="M177.636,1613.755c-6.86,8.624-20.188,14.308-35.868,14.308
		c-15.092,0-32.928-5.488-32.928-27.636c0-19.796,17.052-28.224,34.496-28.224c15.68,0,26.263,4.115,31.359,8.819v-22.54
		c0-17.247-3.724-25.479-17.444-25.479c-13.327,0-15.483,7.84-15.483,27.048h-23.716c0-21.56,11.172-34.691,43.903-34.691
		c27.44,0,37.631,12.544,37.631,30.38v52.527c0,10.584,4.509,13.132,16.66,9.996v7.84
		C198.215,1629.631,182.731,1628.062,177.636,1613.755z M175.283,1598.858c0-14.504-7.84-19.403-20.775-19.403
		c-13.132,0-20.776,4.899-20.776,19.403c0,14.7,7.448,19.404,20.776,19.404C167.64,1618.263,175.283,1613.362,175.283,1598.858z"/>
	<path display="inline" fill="none" d="M373.911,1613.559c-6.859,7.84-20.972,14.504-37.239,14.504
		c-15.876,0-32.34-5.88-32.34-29.008c0-19.208,14.111-29.204,33.124-29.204c15.483,0,27.439,3.92,32.928,8.624v-20.188
		c0-17.444-2.548-24.304-13.328-24.304c-10.388,0-12.544,6.075-12.544,26.067h-30.968c0-23.716,12.348-36.063,49.392-36.063
		c31.556,0,41.943,12.151,41.943,30.968v53.115c0,7.84,3.528,10.389,14.7,7.645v10.388
		C395.275,1630.219,379.596,1627.866,373.911,1613.559z M370.972,1597.291c0-12.937-5.488-18.032-16.072-18.032
		s-16.071,4.9-16.071,18.032c0,13.327,5.487,18.031,16.071,18.031S370.972,1610.618,370.972,1597.291z"/>
	<path display="inline" fill="#FF0000" d="M571.07,1613.755c-6.664,7.252-21.56,14.308-38.024,14.308
		c-16.659,0-31.947-6.271-31.947-29.988c0-18.815,11.956-29.987,31.947-29.987c15.484,0,28.225,3.92,34.104,8.624v-18.424
		c0-17.836-1.765-23.521-10.192-23.521s-10.388,4.9-10.388,25.48h-36.456c0-25.284,13.328-37.24,53.508-37.24
		c34.3,0,44.884,11.76,44.884,31.556v53.312c0,5.88,2.94,8.624,13.524,6.075v12.152
		C593.61,1630.414,578.126,1627.671,571.07,1613.755z M567.738,1596.311c0-12.151-3.92-17.052-12.74-17.052
		c-8.624,0-12.739,4.9-12.739,17.052c0,12.152,4.115,16.856,12.739,16.856C563.818,1613.167,567.738,1608.463,567.738,1596.311z"/>
</g>
<g>
	<path fill="#FF0000" d="M-228.885,1063.323c-3.92,8.428-12.152,11.956-21.952,11.956c-8.232,0-18.816-4.508-18.816-24.892
		c0-22.344,11.368-26.656,20.188-26.656c8.624,0,14.896,3.136,19.208,8.036v-30.576c0-18.816-2.156-21.952-10.976-21.952
		c-8.82,0-10.388,4.312-10.388,29.4h-11.759c0-24.108,5.292-32.928,22.148-32.928s22.736,5.684,22.736,21.756v66.444
		c0,8.428,4.508,8.036,10.584,6.468v3.724C-219.084,1077.042-227.708,1075.867-228.885,1063.323z M-229.865,1048.819
		c0-16.072-7.056-20.776-15.484-20.776c-7.644,0-12.544,4.704-12.544,20.776c0,17.052,4.9,20.972,12.544,20.972
		C-236.92,1069.791-229.865,1065.871-229.865,1048.819z"/>
	<path fill="#999999" d="M-30.159,1062.931c-3.724,8.036-12.152,12.348-22.736,12.348c-9.016,0-19.6-4.9-19.6-25.872
		c0-21.952,10.78-27.636,20.776-27.636c9.212,0,15.68,3.528,19.992,8.232v-28.224c0-18.816-1.96-22.148-9.8-22.148
		c-8.036,0-9.604,4.116-9.604,28.616h-15.092c0-24.892,6.076-33.516,25.479-33.516c18.816,0,25.088,6.86,25.088,23.324v64.68
		c0,7.644,3.92,7.84,10.192,6.468v4.9C-18.399,1077.238-28.395,1075.867-30.159,1062.931z M-31.334,1047.839
		c0-15.68-6.076-20.384-13.72-20.384c-7.056,0-11.368,4.704-11.368,20.384c0,16.072,4.312,20.384,11.368,20.384
		C-37.411,1068.223-31.334,1063.911-31.334,1047.839z"/>
	<path fill="#999999" d="M169.6,1062.343c-3.724,7.84-12.347,12.936-23.912,12.936c-9.604,0-20.384-5.096-20.384-26.852
		s10.388-28.42,21.756-28.42c9.604,0,16.072,3.528,20.58,8.036v-25.872c0-18.816-1.764-22.344-8.82-22.344
		c-7.056,0-8.428,4.116-8.428,27.832h-18.816c0-25.284,7.057-33.908,28.812-33.908c20.971,0,27.635,7.84,27.635,24.696v62.916
		c0,7.056,3.332,7.84,9.996,6.468v6.272C183.123,1077.238,171.756,1075.867,169.6,1062.343z M168.031,1046.859
		c0-15.484-4.899-20.188-11.956-20.188c-6.468,0-10.191,4.704-10.191,20.188c0,15.288,3.527,19.796,10.191,19.796
		C163.132,1066.655,168.031,1062.146,168.031,1046.859z"/>
	<path fill="#999999" d="M367.346,1061.559c-3.332,7.056-12.348,13.72-25.479,13.72c-10.977,0-21.756-5.684-21.756-28.812
		c0-20.972,9.604-29.792,23.128-29.792c10.388,0,17.248,3.92,21.56,8.232v-21.756c0-19.012-1.176-22.736-6.664-22.736
		s-6.859,3.724-6.859,26.46h-24.893c0-26.46,8.624-34.692,34.692-34.692c24.5,0,31.947,9.604,31.947,27.244v59.78
		c0,5.88,2.353,7.644,9.408,6.468v8.428C384.202,1077.435,370.678,1075.67,367.346,1061.559z M365.189,1045.291
		c0-15.092-2.743-19.796-8.819-19.796c-5.488,0-8.036,4.704-8.036,19.796c0,13.524,2.548,18.424,8.036,18.424
		C362.446,1063.714,365.189,1058.814,365.189,1045.291z"/>
	<path fill="#FF0000" d="M565.875,1060.971c-3.136,6.468-12.544,14.308-26.656,14.308c-11.955,0-22.735-6.076-22.735-29.988
		c0-20.58,9.016-30.968,23.912-30.968c11.172,0,18.031,4.312,22.54,8.232v-18.816c0-18.816-0.98-22.932-5.292-22.932
		s-5.685,3.528-5.685,25.479h-29.204c0-27.244,9.801-35.28,38.809-35.28c27.048,0,35.084,10.976,35.084,29.008v57.624
		c0,5.096,1.567,7.644,8.819,6.468v9.996C585.083,1077.63,569.795,1075.67,565.875,1060.971z M563.327,1044.115
		c0-14.896-1.372-19.404-6.664-19.404c-4.704,0-6.664,4.508-6.664,19.404c0,12.152,1.764,17.64,6.664,17.64
		C561.955,1061.754,563.327,1056.267,563.327,1044.115z"/>
	<path fill="#999999" d="M-225.553,1247.323c-5.096,8.232-14.504,12.152-26.068,12.152c-10.192,0-23.912-4.508-23.912-25.284
		c0-21.756,14.504-26.656,25.676-26.656s18.424,3.528,22.736,8.232v-28.812c0-18.032-3.136-23.52-14.896-23.52
		c-11.368,0-13.328,6.272-13.328,29.008h-12.74c0-22.54,6.664-32.928,27.244-32.928c19.012,0,26.068,8.232,26.068,24.304v61.544
		c0,10.192,4.9,10.78,13.524,8.624v4.116C-212.421,1261.042-223.201,1260.062-225.553,1247.323z M-226.729,1232.623
		c0-15.876-8.232-20.776-19.012-20.776c-10.584,0-17.248,4.9-17.248,20.776c0,16.856,6.664,21.168,17.248,21.168
		C-234.765,1253.791-226.729,1249.479-226.729,1232.623z"/>
	<path fill="#999999" d="M-27.023,1246.734c-5.096,8.232-14.896,12.74-27.048,12.74c-10.976,0-24.304-4.9-24.304-26.068
		c0-21.56,13.524-27.636,25.872-27.636c11.368,0,19.012,3.724,23.324,8.428v-26.852c0-18.228-2.548-23.52-13.132-23.52
		c-10.388,0-12.152,5.88-12.152,28.224h-16.66c0-23.128,7.644-33.516,30.771-33.516c20.972,0,28.42,8.82,28.42,25.479v60.564
		c0,9.212,4.312,10.192,12.937,8.036v5.488C-12.911,1261.238-24.867,1259.867-27.023,1246.734z M-28.591,1231.839
		c0-15.68-7.056-20.384-17.052-20.384c-9.604,0-15.484,4.704-15.484,20.384c0,15.875,5.88,20.384,15.484,20.384
		C-35.647,1252.223-28.591,1247.714-28.591,1231.839z"/>
	<path fill="#999999" d="M172.343,1246.343c-4.704,7.84-14.896,13.132-27.832,13.132c-11.563,0-24.696-5.096-24.696-27.048
		c0-21.168,12.74-28.42,26.068-28.42c11.563,0,19.599,3.92,24.107,8.428v-24.892c0-18.228-2.352-23.324-11.563-23.324
		c-9.212,0-10.976,5.292-10.976,27.636h-20.385c0-24.108,8.429-34.104,33.908-34.104c23.127,0,31.164,9.408,31.164,26.46v59.388
		c0,8.232,3.724,9.8,12.152,7.644v6.86C188.022,1261.435,175.282,1259.867,172.343,1246.343z M170.579,1230.859
		c0-15.092-5.881-19.796-15.092-19.796c-8.624,0-13.72,4.704-13.72,19.796c0,15.092,4.9,19.6,13.72,19.6
		C164.698,1250.458,170.579,1245.951,170.579,1230.859z"/>
	<path fill="#999999" d="M369.795,1245.559c-4.703,7.252-15.483,13.916-29.596,13.916c-12.739,0-25.283-5.684-25.283-28.812
		c0-20.384,10.976-29.596,26.264-29.596c12.348,0,20.775,3.92,25.479,8.428v-21.364c0-18.424-1.567-23.128-8.819-23.128
		s-8.82,4.508-8.82,26.264h-27.048c0-25.479,9.996-35.083,39.788-35.083c26.852,0,35.279,10.388,35.279,28.42v57.624
		c0,6.468,2.744,8.624,11.172,6.86v9.016C388.023,1261.63,373.715,1259.67,369.795,1245.559z M367.247,1229.291
		c0-14.504-3.724-19.208-11.367-19.208c-7.057,0-10.78,4.704-10.78,19.208c0,13.328,3.527,18.228,10.78,18.228
		C363.523,1247.519,367.247,1242.619,367.247,1229.291z"/>
	<path fill="#999999" d="M567.64,1245.167c-4.312,6.86-15.68,14.308-30.576,14.308c-13.523,0-25.872-6.076-25.872-29.988
		c0-19.796,9.996-30.576,26.656-30.576c12.74,0,21.56,4.116,26.46,8.428v-18.816c0-18.424-1.176-23.128-6.86-23.128
		c-5.684,0-7.252,3.92-7.252,25.48h-31.752c0-26.46,10.977-35.868,43.904-35.868c29.399,0,38.416,11.172,38.416,29.792v56.252
		c0,5.292,1.96,8.036,10.388,6.272v10.78C588.023,1261.827,572.735,1259.67,567.64,1245.167z M564.896,1228.115
		c0-13.916-2.352-18.62-8.82-18.62c-6.075,0-8.624,4.704-8.624,18.62c0,12.348,2.549,17.444,8.624,17.444
		C562.544,1245.559,564.896,1240.462,564.896,1228.115z"/>
	<path fill="#999999" d="M-222.319,1430.931c-6.076,8.428-17.052,12.936-30.38,12.936c-11.956,0-28.616-4.899-28.616-25.676
		c0-21.168,17.64-27.048,30.968-27.048c13.524,0,21.756,3.92,26.068,8.82v-27.244c0-17.443-4.116-25.088-18.424-25.088
		c-14.112,0-16.268,8.036-16.268,28.42h-13.916c0-20.58,8.232-32.928,32.536-32.928c20.776,0,29.204,10.78,29.204,27.048v56.84
		c0,11.76,5.292,13.328,16.072,10.584v4.508C-206.248,1445.043-219.184,1444.062-222.319,1430.931z M-223.691,1416.623
		c0-15.876-9.212-20.776-22.736-20.776c-13.132,0-21.56,4.704-21.56,20.776c0,16.659,8.232,21.168,21.56,21.168
		C-232.903,1437.791-223.691,1433.087-223.691,1416.623z"/>
	<path fill="#999999" d="M-24.083,1430.343c-6.076,8.428-17.444,13.523-31.164,13.523c-12.74,0-28.812-5.096-28.812-26.655
		c0-20.776,16.268-27.636,30.576-27.636c13.72,0,22.344,4.115,27.048,8.819v-25.479c0-17.64-3.528-24.696-16.464-24.696
		c-12.74,0-14.7,7.252-14.7,27.832H-75.63c0-21.756,9.016-33.712,35.672-33.712c23.128,0,31.752,10.78,31.752,27.832v56.447
		c0,10.389,4.704,12.152,15.288,9.604v5.88C-7.227,1445.238-20.75,1444.062-24.083,1430.343z M-26.042,1415.643
		c0-15.288-7.84-20.188-20.188-20.188c-11.956,0-19.404,4.899-19.404,20.188c0,15.876,7.252,20.384,19.404,20.384
		C-33.882,1436.026-26.042,1431.322-26.042,1415.643z"/>
	<path fill="#999999" d="M174.989,1430.146c-5.88,8.036-17.639,13.72-31.947,13.72c-13.328,0-28.812-5.487-28.812-27.439
		c0-20.384,14.896-28.224,30.38-28.224c13.72,0,22.932,3.92,27.635,8.624v-23.716c0-17.836-2.939-24.5-14.503-24.5
		c-11.172,0-13.132,6.664-13.132,27.243h-22.147c0-22.735,9.996-34.3,39.004-34.3c25.283,0,34.299,10.977,34.299,28.42v56.056
		c0,9.408,4.116,11.368,14.504,8.82v7.252C192.825,1445.631,178.518,1443.866,174.989,1430.146z M172.834,1414.858
		c0-14.699-6.664-19.6-17.835-19.6c-10.977,0-17.248,4.704-17.248,19.6s6.271,19.601,17.248,19.601
		C166.17,1434.459,172.834,1429.559,172.834,1414.858z"/>
	<path fill="#999999" d="M371.755,1429.755c-5.685,7.644-18.229,14.111-33.32,14.111c-14.308,0-28.812-5.88-28.812-29.008
		c0-19.796,12.544-29.399,29.596-29.399c13.916,0,24.107,3.92,29.204,8.428v-20.58c0-18.031-1.96-23.716-10.977-23.716
		c-8.819,0-10.584,5.292-10.584,26.068h-29.204c0-24.5,11.368-35.672,44.688-35.672c29.204,0,38.611,11.367,38.611,29.792v55.271
		c0,7.252,3.137,9.604,12.937,7.252v9.8C391.746,1446.022,376.654,1443.866,371.755,1429.755z M369.011,1413.291
		c0-13.721-4.508-18.62-13.721-18.62c-8.819,0-13.327,4.899-13.327,18.62c0,13.327,4.508,18.228,13.327,18.228
		C364.503,1431.519,369.011,1426.618,369.011,1413.291z"/>
	<path fill="#999999" d="M569.402,1429.559c-5.488,7.056-18.62,14.308-34.3,14.308c-15.092,0-28.812-6.271-28.812-29.987
		c0-19.404,10.977-30.38,29.204-30.38c14.112,0,24.892,4.116,30.38,8.428v-18.424c0-18.228-1.567-23.324-8.624-23.324
		c-7.056,0-8.819,4.312-8.819,25.48h-34.104c0-26.068,12.152-36.652,48.608-36.652c31.947,0,41.747,11.564,41.747,30.772v54.684
		c0,5.684,2.549,8.231,11.956,6.271v11.368C590.766,1446.219,575.479,1443.671,569.402,1429.559z M566.267,1412.311
		c0-13.132-2.94-17.836-10.584-17.836c-7.448,0-10.78,4.704-10.78,17.836c0,12.152,3.332,17.052,10.78,17.052
		C563.326,1429.362,566.267,1424.463,566.267,1412.311z"/>
	<path fill="#FF0000" d="M-218.987,1614.343c-7.056,8.624-19.208,13.72-34.496,13.72c-13.916,0-33.516-4.9-33.516-26.067
		c0-20.58,20.58-27.049,36.26-27.049c15.876,0,25.088,4.312,29.4,9.017v-25.48c0-16.855-4.9-26.655-22.148-26.655
		c-16.66,0-19.012,9.8-19.012,28.027h-15.091c0-19.012,9.8-32.928,37.632-32.928c22.932,0,32.536,13.132,32.536,29.596v52.136
		c0,13.524,5.488,15.876,18.816,12.544v4.9C-200.171,1629.238-215.263,1628.454-218.987,1614.343z M-220.751,1600.427
		c0-15.876-10.192-20.776-26.068-20.776c-16.072,0-26.068,4.704-26.068,20.776c0,16.464,9.8,21.364,26.068,21.364
		C-230.747,1621.791-220.751,1616.694-220.751,1600.427z"/>
	<path fill="#999999" d="M-21.241,1614.146c-6.86,8.624-19.6,13.916-35.083,13.916c-14.504,0-33.32-5.096-33.32-26.852
		c0-20.188,19.012-27.636,35.476-27.636c15.876,0,25.676,4.312,30.38,9.016v-24.108c0-17.052-4.312-26.067-19.796-26.067
		c-15.092,0-17.248,8.82-17.248,27.439h-19.404c0-20.188,10.584-33.712,40.768-33.712c25.284,0,35.084,12.937,35.084,29.988v52.332
		c0,11.956,4.899,14.504,17.64,11.367v6.272C-1.445,1629.435-16.928,1628.259-21.241,1614.146z M-23.201,1599.643
		c0-15.092-9.016-19.992-23.52-19.992s-23.324,4.704-23.324,19.992c0,15.68,8.624,20.384,23.324,20.384
		C-32.021,1620.026-23.201,1615.127-23.201,1599.643z"/>
	<path fill="#999999" d="M177.636,1613.755c-6.86,8.624-20.188,14.308-35.868,14.308c-15.092,0-32.928-5.488-32.928-27.636
		c0-19.796,17.052-28.224,34.496-28.224c15.68,0,26.263,4.115,31.359,8.819v-22.54c0-17.247-3.724-25.479-17.444-25.479
		c-13.327,0-15.483,7.84-15.483,27.048h-23.716c0-21.56,11.172-34.691,43.903-34.691c27.44,0,37.631,12.544,37.631,30.38v52.527
		c0,10.584,4.509,13.132,16.66,9.996v7.84C198.215,1629.631,182.731,1628.062,177.636,1613.755z M175.283,1598.858
		c0-14.504-7.84-19.403-20.775-19.403c-13.132,0-20.776,4.899-20.776,19.403c0,14.7,7.448,19.404,20.776,19.404
		C167.64,1618.263,175.283,1613.362,175.283,1598.858z"/>
	<path fill="#999999" d="M373.911,1613.559c-6.859,7.84-20.972,14.504-37.239,14.504c-15.876,0-32.34-5.88-32.34-29.008
		c0-19.208,14.111-29.204,33.124-29.204c15.483,0,27.439,3.92,32.928,8.624v-20.188c0-17.444-2.548-24.304-13.328-24.304
		c-10.388,0-12.544,6.075-12.544,26.067h-30.968c0-23.716,12.348-36.063,49.392-36.063c31.556,0,41.943,12.151,41.943,30.968v53.115
		c0,7.84,3.528,10.389,14.7,7.645v10.388C395.275,1630.219,379.596,1627.866,373.911,1613.559z M370.972,1597.291
		c0-12.937-5.488-18.032-16.072-18.032s-16.071,4.9-16.071,18.032c0,13.327,5.487,18.031,16.071,18.031
		S370.972,1610.618,370.972,1597.291z"/>
	<path fill="#FF0000" d="M571.07,1613.755c-6.664,7.252-21.56,14.308-38.024,14.308c-16.659,0-31.947-6.271-31.947-29.988
		c0-18.815,11.956-29.987,31.947-29.987c15.484,0,28.225,3.92,34.104,8.624v-18.424c0-17.836-1.765-23.521-10.192-23.521
		s-10.388,4.9-10.388,25.48h-36.456c0-25.284,13.328-37.24,53.508-37.24c34.3,0,44.884,11.76,44.884,31.556v53.312
		c0,5.88,2.94,8.624,13.524,6.075v12.152C593.61,1630.414,578.126,1627.671,571.07,1613.755z M567.738,1596.311
		c0-12.151-3.92-17.052-12.74-17.052c-8.624,0-12.739,4.9-12.739,17.052c0,12.152,4.115,16.856,12.739,16.856
		C563.818,1613.167,567.738,1608.463,567.738,1596.311z"/>
</g>
</svg>
